<svg width="22" height="22" viewBox="0 0 22 22" fill="none" xmlns="http://www.w3.org/2000/svg">
<path d="M11.0005 0C11.2665 0 11.5325 0.009 11.7975 0.028C12.5605 0.083 13.1425 0.645 13.3095 1.332L13.6615 2.782C13.6805 2.86 13.7515 2.953 13.8865 3.003C14.1335 3.092 14.3765 3.193 14.6145 3.305C14.7445 3.366 14.8605 3.349 14.9295 3.307L16.2045 2.531C16.8075 2.163 17.6155 2.178 18.1945 2.678C18.5965 3.027 18.9745 3.404 19.3225 3.807C19.8235 4.385 19.8375 5.193 19.4695 5.797L18.6935 7.071C18.6515 7.14 18.6355 7.256 18.6955 7.386C18.8075 7.624 18.9085 7.867 18.9985 8.114C19.0465 8.249 19.1405 8.319 19.2185 8.339L20.6685 8.691C21.3555 8.858 21.9175 9.44 21.9715 10.203C22.0095 10.734 22.0095 11.266 21.9715 11.797C21.9175 12.56 21.3555 13.142 20.6685 13.309L19.2185 13.661C19.1405 13.68 19.0475 13.751 18.9975 13.886C18.9085 14.134 18.8075 14.377 18.6955 14.614C18.6345 14.744 18.6515 14.86 18.6935 14.929L19.4695 16.204C19.8375 16.807 19.8225 17.615 19.3225 18.194C18.9735 18.596 18.5965 18.974 18.1935 19.322C17.6155 19.823 16.8075 19.837 16.2035 19.469L14.9295 18.693C14.8605 18.651 14.7445 18.635 14.6155 18.695C14.3773 18.8071 14.134 18.9082 13.8865 18.998C13.7515 19.046 13.6815 19.14 13.6615 19.218L13.3095 20.668C13.1425 21.355 12.5605 21.917 11.7975 21.971C11.2665 22.009 10.7345 22.009 10.2035 21.971C9.4405 21.917 8.8585 21.355 8.6915 20.668L8.3395 19.218C8.3205 19.14 8.2495 19.047 8.1145 18.997C7.8671 18.9081 7.62415 18.8074 7.3865 18.695C7.2565 18.634 7.1405 18.651 7.0715 18.693L5.7965 19.469C5.1935 19.837 4.3855 19.822 3.8065 19.322C3.4045 18.973 3.0265 18.596 2.6785 18.193C2.1775 17.615 2.1635 16.807 2.5315 16.203L3.3075 14.929C3.3495 14.86 3.3655 14.744 3.3055 14.615C3.1934 14.3768 3.0923 14.1335 3.0025 13.886C2.9545 13.751 2.8605 13.681 2.7825 13.661L1.3325 13.309C0.645501 13.142 0.0835007 12.56 0.0285007 11.797C-0.00950023 11.2663 -0.00950023 10.7337 0.0285007 10.203C0.0835007 9.44 0.645501 8.858 1.3325 8.691L2.7825 8.339C2.8605 8.32 2.9535 8.249 3.0035 8.114C3.0925 7.866 3.1935 7.623 3.3055 7.386C3.3665 7.256 3.3495 7.14 3.3075 7.071L2.5315 5.796C2.1635 5.193 2.1785 4.385 2.6785 3.806C3.0275 3.404 3.4045 3.026 3.8075 2.678C4.3855 2.177 5.1935 2.163 5.7975 2.531L7.0715 3.307C7.1405 3.349 7.2565 3.365 7.3865 3.305C7.6245 3.193 7.8675 3.092 8.1145 3.002C8.2495 2.954 8.3195 2.86 8.3395 2.782L8.6915 1.332C8.8585 0.645 9.4405 0.083 10.2035 0.028C10.4665 0.01 10.7325 0 11.0005 0ZM10.3105 1.525C10.2555 1.529 10.1755 1.575 10.1495 1.686L9.7965 3.136C9.72174 3.42906 9.57558 3.69905 9.37108 3.92187C9.16657 4.1447 8.91008 4.31343 8.6245 4.413C8.42083 4.48686 8.22062 4.56995 8.0245 4.662C7.75185 4.79388 7.45078 4.85615 7.14819 4.84323C6.8456 4.83032 6.55092 4.74263 6.2905 4.588L5.0165 3.812C4.9185 3.752 4.8305 3.776 4.7885 3.812C4.44057 4.11393 4.11443 4.44007 3.8125 4.788C3.7765 4.83 3.7525 4.919 3.8125 5.016L4.5885 6.29C4.9025 6.819 4.9305 7.47 4.6625 8.024C4.57045 8.22012 4.48736 8.42033 4.4135 8.624C4.31405 8.90993 4.14526 9.16674 3.92223 9.37145C3.6992 9.57616 3.42889 9.72237 3.1355 9.797L1.6855 10.148C1.5755 10.175 1.5295 10.255 1.5255 10.31C1.4925 10.7694 1.4925 11.2306 1.5255 11.69C1.5295 11.745 1.5755 11.825 1.6865 11.851L3.1365 12.204C3.42956 12.2788 3.69955 12.4249 3.92237 12.6294C4.1452 12.8339 4.31393 13.0904 4.4135 13.376C4.4875 13.58 4.5705 13.78 4.6625 13.976C4.9305 14.529 4.9025 15.18 4.5885 15.709L3.8125 16.984C3.7525 17.082 3.7765 17.17 3.8125 17.212C4.1135 17.56 4.4405 17.887 4.7885 18.188C4.8305 18.224 4.9195 18.248 5.0165 18.188L6.2905 17.412C6.55074 17.257 6.8454 17.1689 7.14804 17.1559C7.45069 17.1428 7.75184 17.205 8.0245 17.337C8.2205 17.43 8.4205 17.513 8.6245 17.587C8.91043 17.6864 9.16724 17.8552 9.37195 18.0783C9.57666 18.3013 9.72287 18.5716 9.7975 18.865L10.1485 20.315C10.1755 20.425 10.2555 20.471 10.3105 20.475C10.7699 20.508 11.2311 20.508 11.6905 20.475C11.7455 20.471 11.8255 20.425 11.8515 20.314L12.2045 18.864C12.2793 18.5708 12.4254 18.3007 12.6299 18.0777C12.8344 17.8548 13.0909 17.6858 13.3765 17.586C13.5803 17.5129 13.7806 17.4301 13.9765 17.338C14.249 17.2061 14.5499 17.1439 14.8523 17.1568C15.1548 17.1697 15.4493 17.2574 15.7095 17.412L16.9845 18.188C17.0825 18.248 17.1705 18.224 17.2125 18.188C17.5605 17.887 17.8875 17.56 18.1885 17.212C18.2245 17.17 18.2485 17.081 18.1885 16.984L17.4125 15.709C17.258 15.4488 17.1703 15.1543 17.1572 14.8519C17.1441 14.5495 17.206 14.2486 17.3375 13.976C17.4305 13.78 17.5135 13.58 17.5875 13.376C17.687 13.0901 17.8557 12.8333 18.0788 12.6285C18.3018 12.4238 18.5721 12.2776 18.8655 12.203L20.3155 11.852C20.4255 11.825 20.4715 11.745 20.4755 11.69C20.5085 11.2306 20.5085 10.7694 20.4755 10.31C20.4715 10.255 20.4255 10.175 20.3145 10.149L18.8645 9.796C18.2385 9.644 17.7845 9.171 17.5865 8.624C17.5138 8.42004 17.431 8.2198 17.3385 8.024C17.2066 7.75135 17.1444 7.45028 17.1573 7.14769C17.1702 6.8451 17.2579 6.55042 17.4125 6.29L18.1885 5.016C18.2485 4.918 18.2245 4.83 18.1885 4.788C17.8866 4.44007 17.5604 4.11393 17.2125 3.812C17.1705 3.776 17.0815 3.752 16.9845 3.812L15.7095 4.588C15.4493 4.74263 15.1548 4.83032 14.8523 4.84324C14.5499 4.85615 14.249 4.79388 13.9765 4.662C13.7805 4.5696 13.5803 4.48651 13.3765 4.413C13.0907 4.31324 12.8341 4.14434 12.6294 3.92136C12.4248 3.69838 12.2785 3.42824 12.2035 3.135L11.8525 1.685C11.8255 1.575 11.7455 1.529 11.6905 1.525C11.2311 1.492 10.7699 1.492 10.3105 1.525Z" fill="#20547B"/>
</svg>
