<svg width="26" height="28" viewBox="0 0 26 28" fill="none" xmlns="http://www.w3.org/2000/svg">
<path d="M15.963 2.18945C16.0039 2.13772 16.0546 2.09458 16.1123 2.06254C16.1699 2.03049 16.2333 2.01017 16.2989 2.00273C16.3644 1.9953 16.4307 2.0009 16.4941 2.01921C16.5574 2.03753 16.6165 2.06819 16.668 2.10945L17.748 2.97545L13.799 8.00145H16.343L19.311 4.22545L21.815 6.23145C21.8675 6.27346 21.9109 6.32562 21.9428 6.3848C21.9746 6.44399 21.9942 6.50899 22.0004 6.57592C22.0065 6.64285 21.9991 6.71034 21.9786 6.77435C21.9581 6.83835 21.9249 6.89757 21.881 6.94845L20.973 8.00145H23.587C23.9313 7.48121 24.0686 6.85104 23.972 6.23471C23.8755 5.61838 23.5519 5.06043 23.065 4.67045L17.918 0.548449C17.6609 0.342587 17.3656 0.189563 17.0492 0.0981686C16.7327 0.00677453 16.4014 -0.0211871 16.0741 0.0158901C15.7468 0.0529673 15.4301 0.154352 15.1421 0.31422C14.8541 0.474087 14.6005 0.689286 14.396 0.947449L8.809 8.00145H11.36L15.963 2.18945ZM18 17.0014C17.7348 17.0014 17.4804 17.1068 17.2929 17.2943C17.1054 17.4819 17 17.7362 17 18.0014C17 18.2667 17.1054 18.521 17.2929 18.7086C17.4804 18.8961 17.7348 19.0014 18 19.0014H21C21.2652 19.0014 21.5196 18.8961 21.7071 18.7086C21.8946 18.521 22 18.2667 22 18.0014C22 17.7362 21.8946 17.4819 21.7071 17.2943C21.5196 17.1068 21.2652 17.0014 21 17.0014H18ZM3 5.00145C2.20435 5.00145 1.44129 5.31752 0.87868 5.88013C0.316071 6.44274 0 7.2058 0 8.00145V22.5014C0 23.6949 0.474106 24.8395 1.31802 25.6834C2.16193 26.5273 3.30653 27.0014 4.5 27.0014H21.5C22.6935 27.0014 23.8381 26.5273 24.682 25.6834C25.5259 24.8395 26 23.6949 26 22.5014V13.5014C26 12.308 25.5259 11.1634 24.682 10.3195C23.8381 9.47556 22.6935 9.00145 21.5 9.00145H3C2.73478 9.00145 2.48043 8.89609 2.29289 8.70856C2.10536 8.52102 2 8.26667 2 8.00145C2 7.73623 2.10536 7.48188 2.29289 7.29434C2.48043 7.10681 2.73478 7.00145 3 7.00145H7.58L9.176 5.00145H3ZM2 22.5014V10.8314C2.313 10.9414 2.65 11.0014 3 11.0014H21.5C22.163 11.0014 22.7989 11.2648 23.2678 11.7337C23.7366 12.2025 24 12.8384 24 13.5014V22.5014C24 23.1645 23.7366 23.8004 23.2678 24.2692C22.7989 24.7381 22.163 25.0014 21.5 25.0014H4.5C3.83696 25.0014 3.20107 24.7381 2.73223 24.2692C2.26339 23.8004 2 23.1645 2 22.5014Z" fill="#20547B"/>
</svg>
